<svg width="56" height="49" viewBox="0 0 56 49" fill="none" xmlns="http://www.w3.org/2000/svg">
<path fill-rule="evenodd" clip-rule="evenodd" d="M42.4953 0H13.0059C9.55734 0.00300595 6.25105 1.20045 3.81296 3.33059C1.37432 5.46034 0.00341377 8.34826 0 11.3606V37.1194C0.0034413 40.1317 1.37432 43.0197 3.81296 45.1493C6.25116 47.2795 9.55734 48.4769 13.0059 48.4799H42.4953C45.9439 48.4769 49.2502 47.2795 51.6883 45.1493C54.1269 43.0196 55.4978 40.1317 55.5012 37.1194V11.3606C55.4978 8.34826 54.1269 5.46024 51.6883 3.33059C49.2501 1.20045 45.9439 0.0029819 42.4953 0ZM51.1846 37.1189C51.1863 39.1325 50.2714 41.0638 48.6414 42.4874C47.0115 43.9111 44.8005 44.7103 42.4953 44.7089H13.0059C10.7006 44.7104 8.4896 43.9112 6.8598 42.4874C5.23 41.0637 4.315 39.1324 4.31665 37.1189V11.3601C4.31493 9.34643 5.22989 7.41512 6.8598 5.9915C8.48971 4.56789 10.7007 3.76864 13.0059 3.77008H42.4953C44.8006 3.76858 47.0116 4.56779 48.6414 5.9915C50.2712 7.41521 51.1862 9.34652 51.1846 11.3601V37.1189ZM13.5676 24.2072C13.5676 28.6335 16.2711 32.7234 20.6596 34.9363C25.0477 37.1494 30.4548 37.1494 34.8432 34.9363C39.2318 32.7231 41.9353 28.6332 41.9353 24.2072C41.158 7.73463 14.3455 7.72982 13.568 24.2072H13.5676ZM17.9337 24.2072C17.9337 21.1434 19.8048 18.3126 22.8426 16.7807C25.88 15.2487 29.6224 15.2487 32.6597 16.7807C35.6976 18.3126 37.5687 21.1434 37.5687 24.2072C37.0323 35.6106 18.5012 35.6163 17.9341 24.2072H17.9337ZM41.4238 9.24943C41.8867 8.84551 42.5139 8.61856 43.1682 8.61856C43.8225 8.61856 44.4496 8.84551 44.9125 9.24943C45.3749 9.65372 45.6347 10.2016 45.6347 10.7731C45.6347 11.3446 45.3749 11.8924 44.9125 12.2967C44.4496 12.7007 43.8225 12.9276 43.1682 12.9276C42.5139 12.9276 41.8867 12.7007 41.4238 12.2967C40.9614 11.8924 40.7016 11.3446 40.7016 10.7731C40.7016 10.2016 40.9614 9.65373 41.4238 9.24943Z" fill="#1F2039"/>
</svg>
