<svg width="65" height="48" viewBox="0 0 65 48" fill="none" xmlns="http://www.w3.org/2000/svg">
<path d="M58.144 11.8293L57.9083 11.9855L57.9207 12.268C57.9409 12.7276 57.9514 13.1878 57.9514 13.65C57.9514 30.2567 44.005 47.5 20.562 47.5C13.7311 47.5 7.07494 45.8151 1.24684 42.6209C1.98542 42.6762 2.7306 42.7037 3.47154 42.7037C9.20665 42.7037 14.6436 41.0957 19.2454 38.0395L20.4563 37.2353L19.0069 37.1244C13.8951 36.7335 9.52012 33.6687 7.82311 29.3151C9.27435 29.533 10.7438 29.5344 12.1647 29.3249L12.2273 28.349C6.8853 26.844 3.16192 22.3564 3.08513 17.2773C4.53044 17.9689 6.11184 18.4146 7.73053 18.5912L9.61011 18.7962L8.07761 17.6888C4.98865 15.4568 3.19186 12.0879 3.19186 8.50075C3.19186 6.50182 3.75513 4.53338 4.82681 2.79346C11.4845 10.1057 21.2052 14.5946 31.5834 15.1756L32.2406 15.2124L32.0998 14.5694C31.9354 13.8188 31.8518 13.0443 31.8518 12.2622C31.8518 5.82147 37.6486 0.5 44.8775 0.5C48.4237 0.5 51.8426 1.82212 54.2846 4.11771L54.4691 4.29106L54.7179 4.24508C57.4715 3.73631 60.1033 2.84041 62.5503 1.57912C61.6907 3.68959 60.1725 5.53667 58.1707 6.90117L58.5303 7.8082C60.4485 7.50547 62.3168 7.01594 64.1076 6.34523C62.4524 8.45866 60.4502 10.3011 58.144 11.8293ZM59.3457 6.64977C59.0236 6.71218 58.6997 6.76908 58.3744 6.82043L58.4523 7.31432L58.734 7.72746C59.0192 7.53302 59.2956 7.32927 59.5627 7.11673C61.2776 6.77668 62.9458 6.28247 64.5462 5.63859C64.6764 5.5844 64.8307 5.61837 64.9244 5.71785C65.0172 5.81813 65.0252 5.96128 64.9449 6.06965L59.3457 6.64977ZM4.68141 2.63278L4.68143 2.6328L4.68141 2.63278Z" fill="white" stroke="#1F2039"/>
</svg>
